<?xml version="1.0" encoding="UTF-8"?>
<svg id="Layer_1" xmlns="http://www.w3.org/2000/svg" version="1.1" viewBox="0 0 3630.92 929.71">
  <!-- Generator: Adobe Illustrator 29.4.0, SVG Export Plug-In . SVG Version: 2.1.0 Build 152)  -->
  <path id="ort" d="M3556.35,604.53c-27.42,33.79-93.26,77.63-67.39-4.99,13.69-43.74,36.42-89.16,50.97-133.2,2.66-3.09,57.76,6.04,77.11-8.01,13.2-9.56,22.4-50.83,1.71-50.83h-57.47l-.1.03c6.83-18.32,29.56-53.72,26.3-73.72-3.25-20-48.6-36.88-63.12-10.71-11.95,21.51-19.47,60.19-29.19,84.1-3.12,2.69-49.98-1.58-60.36.39-25.52,4.86-31.56,59.04-9.92,59.04h47.62c-24.4,58.98-38.36,115.4-90.41,157.53-13.3,10.77-45.81,36.42-50.61,4.79-8.24-54.38,76.81-101.54,75.63-144.26-1.28-46.7-48.37-8.31-72.38-26.21,11.2-19.47,25.12-73.2-5.81-79.86-29.46-6.37-60.03,33.92-63.02,60.39-3.19,28.47,15.3,26.37-6.73,52.31-8.08,9.52-18.36,16.78-28.01,24.53-6.76-113.82-89.09-104.36-157.53-42.59-48.6,43.87-127.88,200.45-39.6,236.47,72.57,29.59,137.04-37.37,167.74-95.23,4.56-8.57,11.56-34.65,15.47-38.75,3.35-3.55,21.28-9.03,27.72-13.3,24.2-15.96,44.53-37.21,60.13-61.61l22.95,6.76c-29.72,39.87-71.82,106.1-65.71,157.73,2.27,19.24,20.79,38.88,39.28,42.79,49.55,10.48,80.72-22.07,115.1-51.1-3.42,73.36,61.7,69.19,109.42,38.78,19.51-12.45,83.54-73.72,90.18-93.72,3.65-10.9,6.8-22.3,2.43-33.76-38.85-23.97-43.64,13.1-62.39,36.19h0ZM3071.06,662.95c-18.65-5.42-10.28-28.83-7.29-42,1.67-7.39,32.02-95.53,41.02-88.67,5.62,30.87,31.82,35.86,55.79,47.58-14.42,29.16-48.5,95.04-89.52,83.08ZM3173.78,535.6c-30.87,6.53-40.2-62.53-7.36-46.83,18.19,8.67,6.96,31.76,7.36,46.83Z"/>
  <path id="ep" d="M2995.75,475.5c-18.92-46.7-61.7-45.55-100.13-22.69-4.33,2.59-17.47,16.75-20.66,13.79,22.86-40.13-10.97-56.71-45.94-40.98-19.74,49.72-34.02,109.62-67.65,152.37-19.28,24.53-71.59,73-102.29,78.29-34.48,5.91-64.23-5.58-56.71-45.22,48.24.07,101.64-22.46,133.06-59.04,61.61-71.69,11.03-147.35-79.44-108.99-127.25,53.92-178.45,309.74-.39,268.89,32.94-7.55,60.69-28.93,84.69-51.56l-44.2,92.05c-13.33,43.15-45.61,99.37-50.44,143.64-4.14,37.83,56.15,46.57,67.98,11.85l69.39-221.27c25.19,32.22,64.59,34.65,100.72,20.29,74.48-29.56,143.15-154.54,112.01-231.42h0ZM2653.37,506.07c18.62-15.07,61.44-31.03,46.8,7.42-13.14,34.42-52.48,45.88-84.63,54.87h-.03.03c7.62-24.33,17.5-45.84,37.83-62.3ZM2932.38,581.51c-18.55,46.4-77.86,110.34-125.74,60.39,21.71-46.86,51.2-147.45,113.56-151.62h0c38.19-2.53,20.79,69.78,12.18,91.23h0Z"/>
  <path id="R2" d="M2431.61,522.46c7.45,23.94,26.11,42.4,36.71,66.7,15.6,35.7,39.54,145.41,80.65,155.79,22,5.55,54.94-10.05,52.54,27.88-.99,15.8-15.7,31.49-31.13,34.55-155.1,30.87-130.86-160.98-196.58-241.96-4.79-5.94-22.23-25.12-28.44-12.58-6.99,14.15-14.42,33.43-20.49,48.44-11.13,27.49-26.6,89.59-41.08,109.98-11.13,15.66-24.89,19.51-43.48,17.21-36.45-4.47-42.4-16.98-30.38-51.66l178.84-389.28c15.73-16.78,59.18-5.91,59.31,19.7l-72.34,179.01c47.58-7.85,84.82-18.42,121.54-50.83,39.11-34.55,82.75-110.27,30.61-152.18-74.12-59.5-216.97,13.96-261.14,82.52-15.5,24.07-8.6,45.97-18.29,63.81-14.19,26.07-53.92,6.67-56.71-26.9-13.1-158.45,325.6-289.31,411.15-138.61,66.63,117.4-59.67,240.55-171.32,258.35v.07h.03Z"/>
  <path id="i-dot" d="M1279.94,390.12c-15.53-19.28,9.75-59.57,29.59-68.67,77.83-35.63,82.33,70.31,10.64,76.32-11.1.92-32.84,1.51-40.2-7.65h-.03Z"/>
  <path id="iffle" d="M2113.07,563.44c-28.8-13.99-36.09,16.98-49.36,32.77-13.27,15.8-51.1,47.78-69.91,54.87-36.81,13.89-78.39,8.34-71.23-40.03,55.14,3.71,131.72-41.51,151.65-93,26.01-67.16-25.84-94.54-85.97-79.41-50.77,12.81-88.17,56.09-106.63,103.54-12.64,32.45-8.51,54.74-35.7,80.88-20.23,19.44-52.31,35.2-80.16,23.38h.03v-.07c-7.95-8.01-5.78-43.71-.43-53.07,77.89-67.29,149.52-147.61,177.82-249.08,10.34-37.08,15.34-76.84-22.76-100.45-48.83-30.24-83.15,38.45-103.44,72.77-27.39,46.24-51.89,100.55-73.23,150.07-14.15,32.87-26.76,89.82-50.9,113.3-22.49,21.94-66.27,38.72-70.87-4.93l110.04-133.23c31.53-39.18,98.22-145.48,44.43-185.38-16.62-12.31-34.42-12.05-54.32-8.37-77.37,14.25-119.21,166.82-147.05,230.6-10.84,24.86-24.1,65.88-44.99,83.08-20.89,17.21-88.07,42.56-92.02.16,51.52-58.06,115.04-116.32,146.86-188.33,15.3-34.68,37.6-98.85-11.07-118.16-60.65-24.1-97.63,23.94-125.51,70.21-54.25,89.98-68.9,211.65-139.93,293.55-14.12,16.29-64.82,57.53-62.13,10.41,2.36-41.74,71.52-134.9,61.61-167.32-6.24-20.36-55.17-14.48-68.4,2.59-7.09,9.16-11.76,42.86-17.14,58.39-15.53,44.73-69.09,128.5-40.13,173.03,23.94,36.81,73.76,21.48,106.53,6.73-9.75,43.68-70.9,166.3-7.32,189.61,45.94,16.85,80.62-20.52,105.74-53.46,44.96-58.91,69.06-134.28,55.99-208.36,24.7,9.49,44.92,6.44,68.93-3.28-17.73,61.15-79.04,171.19-64.99,234.08,7.82,34.91,51.26,41.05,80.39,29.23,74.68-30.31,120.19-169.06,106.1-243.6,22.92-.23,45.42,3.42,65.65-9.85,2.4,116.48,109.16,86.27,170.73,32.84,20.79,60.69,96.61,51.95,143.47,26.83,21.05-11.3,85.61-60.88,97.8-79.54,7.45-11.43,15.24-47.52,1.81-54.02h0ZM2020.86,493.17c.23,40.52-47.16,69.49-85.09,68.67,17.11-29.42,45.71-77.93,85.09-68.67ZM1791.28,502.73s.03-.03.07-.07c21.28-72.8,56.15-142.1,100.06-203.5,11.99,21.05,3.42,49.03-5.39,70.11-19.05,45.52-59.64,98.91-94.68,133.39v.1h-.03l-.03-.03ZM1633.65,486.31v-.03c27.55-65.09,48.4-137.96,101.7-187.12,7.75,24.92-3.45,53-14.58,75.66-19.7,40.06-58.98,76.81-87.12,111.46v.07h0v-.03ZM1446.8,471.89c17.47-39.8,36.29-82.13,57.04-120.29,2.3-4.2,30.64-57.27,37.83-49.16,10.11,64.73-41.77,113.79-75.6,162.46l-22.89,21.41c-.95-5.58,1.51-9.65,3.61-14.42ZM1341.32,822.84c-7.62,8.74-23.22,23.41-23.05,3.51.16-19.9,8.54-48.96,13.53-68.86,12.35-49.23,33.53-95.04,49.03-143.08,4.76-.59,5.91,8.64,6.24,11.76,7.09,67.19.92,143.41-45.74,196.67h0ZM1543.05,811.15c-2.33,3.65-22.63,32.15-27.62,26.53,1.77-67.71,30.9-132.34,52.18-195.89,1.71-5.09-2.89-9.39,6.9-7.68,6.47,59.64,2,125.31-31.46,177.04h0Z"/>
  <path id="R" d="M1052.4,525.75c41.21,50.47,53.92,116.32,80.49,173.95,6.08,13.14,19.77,40.1,34.25,44.56,27.45,8.44,71.26-14.22,58.59,41.84-3.25,14.32-17.11,20.52-30.51,22.04-129.42,14.55-126.1-81.15-163.31-171.62-9.79-23.74-34.42-85.78-63.9-87.29-5.22-.69-6.27,3.42-8.28,6.99-22.86,41.05-36.02,123.93-60.26,156.45-19.05,25.58-74.32,23.45-75.76-11.76-1.18-28.18,58.32-131.32,73.89-164.16,35.14-74.18,66.2-153.72,101.7-226.69,8.74-18,11.72-32.31,34.94-30.77,53.95,3.58,25.38,57.6,13.14,88.7-15.66,39.87-38.91,76.81-50.77,118.32,41.41-4.4,82.59-17.6,114.97-44.27,47.12-38.82,95.63-136.22,18.65-169.81-87.84-38.32-235.65,26.21-269.84,115.66-6.31,16.49-5.88,53-29.59,52.51-52.97-1.08-37.04-90.34-14.74-119.83,77.89-102.95,250.53-165.31,367.77-95.36,45.45,27.13,65.88,85.55,54.25,136.45-20.46,89.55-103.15,140.19-185.64,164.13h-.03v-.03Z"/>
  <g id="RiffleFly">
    <path d="M384.11,829.88c-39.92,48.61-103.49,71.2-161.45,29.7-34.42-24.64-57.8-75.41-48.74-117.7.43-2.01,4.13-13.63,4.91-14.56,1.32-1.57,12.02-1.46,15.2-2.21,11-2.58,24.54-15.54,27.49-26.52.66-2.44-.08-6.7,1.08-8.27.57-.77,13.02-4.89,17.01-8.62,5.06-4.74,9.17-19.28,10.11-19.89.7-.45,4.56-.52,6.76-1.5,19-8.42,18.3-18.43,30.55-30.51,2.53-2.5,10.9-5.58,14.93-8.81,6.3-5.05,13.09-13.53,16.31-20.95.89-2.04,1.37-6.57,1.72-7.04.3-.42,4.89-1.28,6.32-2,7.15-3.59,14.77-9.83,18.54-16.96,33.48,12.63,68.58,24.65,104.72,25.53,39.74.96,79.96-6.35,115.1-25.04,18.03-9.59,33.98-22.19,45.7-39.08.92,1.96-3.89,14.85.49,11.04,10.13-8.82,13.44-28.57,17.2-40.99.54-1.77.44-8.87,2.51-3.73l2.39,10.7c4.47-14.09,3.16-28.35,4.04-42.85q1.29,1.73,1.6,2.82c1.01,3.62,1.5,6.16,2.12,9.39.3,1.58.88,3.27,1.65,1.05.77-2.22.96-20.48.96-20.48-1.48-12.79-5.25-19.7-6.23-22.06-5.06-12.19-14.2-19.59-23.21-28.59,1.42-23.91,1.79-46.79-7.76-69.1,47.31-38.85,89.19-89.18,114.23-145.45,7.97-17.91,26.1-60.12,9.66-76.61-19.08-19.15-57.57,4.24-75.27,16.08-39.29,26.27-77.9,64.44-108.35,100.51-5.98,7.09-13.92,19.86-19.82,25.49-1.1,1.05-1.74,2.25-3.52,2.27-6.38.05-16.5-5.54-23.04-6.74-4.58-.84-9.17.19-13.69-.94-1.05-.26-2.14.44-1.45-1.52,3.11-8.83,25.4-20.54,34.14-23.42,2.94-.97,13.57-2.41,14.07-2.92.16-.16.38-3.78.25-3.92-.53-.58-13.66-1.76-15.48-1.77-6.09-.03-12.45,1.98-18.55,1.67,17-16.46,32-30.07,55.89-35.24,2.61-.56,13.45-.65,13-3.55-.41-2.65-24.11-5.41-27.34-4.85l-23.64,3.44c17.42-19.74,39.93-33.31,64.76-41.77l1.45-3.67-14.48-.68c-3.5-.17-20.41,4.17-24.49,5.66-5.36,1.95-12.45,7.21-17.25,8.37-1.58.38-1.59-.21-1.43-1.57.25-2.09,4.98-9.48,6.43-11.86,6.25-10.25,17.28-24.8,26.09-32.79,2.9-2.63,17-11.18,17.15-13.2.27-3.59-10.36-2-12.8-1.45-12.22,2.74-24.49,12.82-34.99,19.32l-19.89,19.62c7.71-28.12,18.72-55.3,24.97-83.9-3.86-1.64-4.09-1.06-6.3,2.01-11.55,16.03-21.23,42.37-30.98,60.51-2.87,5.33-6.59,11.86-10.48,16.31,4.46-24.86,5.58-51.42.29-76.28-.97-4.58-8.3-28.12-12.89-28.41-1.18-.07-1.53,2.15-1.57,3.28-.31,8.53,2.29,19.98,2.16,29.43-.22,17.15-5.12,51.02-11.52,66.67-.65,1.58.41,2.7-2.35,2.08,1.57-3.16,1.56-7.02,1.53-10.47-.2-26.66-7.87-58.45-20.02-82.16-2.25-4.38-11.83-20.61-15.67-22.08-2.47-.94-.94.86-.78,1.67,1.32,6.65,4.54,13.69,5.98,20.38,5.06,23.56,2.21,43.54.23,66.91-.15,1.78-.01,2.79.7,4.41-2.8.36-1.66-.65-2.15-2.29-8.68-28.93-24.89-84.39-55.5-97.73-1.19-.52-4.37-2.2-3.72.51,1.18,4.98,9.32,15.94,11.85,21.73,5.49,12.58,10.3,30.29,12.76,43.84.41,2.24,4.27,26.4,2.57,26.35-10.37-25.87-26.31-52.16-46.72-71.27-7.01-6.56-15.72-15.13-25.78-15.25l9.85,12.54c17.03,27.22,32.99,56.17,36.42,88.75-10.16-13.02-18.09-27.61-28.61-40.4-15.75-19.16-48.76-49.71-73.84-53.29-1.18-.17-3.29-.03-3.28,1.12,0,1.29,13.36,9.22,15.4,10.82,11.46,8.99,21.15,20.57,29.57,32.37,15.58,21.85,28.93,45.46,36.71,71.27l-25.17-28.23c-31.48-30.62-71.93-57.42-116.75-61.53-.66,2.28,2.59,3.37,4.13,4.35,9.65,6.19,20.64,12,29.95,18.64,26.48,18.88,49.51,42.91,65.58,71.3-1.68.69-4.78-2.01-6.17-2.99-32.89-23.2-84.87-48.17-126.11-46.79-2.71.09-14.14,1.38-7.99,4.61,2.56,1.35,12.13,2.66,16.29,4.06,18,6.03,35.48,15.71,51.5,25.79,17.25,10.85,34.1,23.67,46.28,40.1l-29.92-10.06c-16.11-4.99-36.86-10.22-53.74-9.39-2.47.12-7.18.61-6.68,4.1.28,1.95,32.5,11.84,36.61,14.53,19.17,9.08,37.65,19.12,54.25,32.38-.07,1.73-4.44.89-5.58.77-11.1-1.17-24.71-2.39-35.86-.63-1.18.19-9,2.28-6.82,4.57.38.4,9.14,1.49,10.97,1.97,17.63,4.68,34.64,12.1,49.25,23.06l11.19,10.36c-7.91-.36-17.29-3.66-25-3.6-1.97.02-13.28,1.91-13.95,2.84-.38.54-.25,2.27.25,3.01.66.98,12.89,3.86,15.62,4.9,20.31,7.74,40.06,19,54.07,35.89l-13.17,9.7c-7-.67-12.19-3.6-17.92,2.3-1.16,1.19-2.1,1.01-.57,2.47,2.29,2.18,6.25,2.62,8.77,4.44-.72,1.47-9.14,9.95-10.51,10.57-2.71,1.24-4.38-3.87-5.73-5.83-1.07-.81-2.29.27-2.02.77.1.19.74-.24.6-.71-.85-2.78-12.15-8.63-12.12-1.61l-1.44.85-1.05,2.12c1.47,2.5,10.54,18.39,9.83,19.82-4.02,3.66-7.15,7.68-9.38,12.06-3.9-.96-9.99,8.41-4.51,9.99l-1.31,3.26c-2.9,2.32-3.58,4.11-2.06,5.4l-2.95,1.43c-1.76,3.33-7.34,16.04-7.95,19.14-.61,3.08,2.02,4.83,4.82,3.74-.6,5.06-2.82,12.96-8.54,8.24-20.68-9.94-41.54-20.48-62.58-31.61l-3.9-.75c-1.1-.39-6.43,4.26-6.52,5.72,1.34,1.94,2.01,3.64,2.01,5.08.43.26,5.18,1.91,1.51,1.99-31.77-9.27-66.14-16.39-99.47-15.61-7.91.19-30.29,4.51-10.36,7.5,48.41,7.25,93.73,14.8,139.25,33.9,9.54,4,18.49,9.47,28.2,13.06-.38,1.75-5.25.87-6.58.72-49.58-5.46-91.76-11.62-139.68,8.22-1.61.67-21.13,9.07-17.92,12.34,1.14,1.16,27.17-7.17,31.4-8.04,32.88-6.7,70.49-7.8,103.78-3.6,9.12,1.15,18.25,3.27,27.33,4.77,3.07,3.79-2.11,2.13-5.36,2.54-33.44,4.17-67.21,17.84-95.08,36.3l-7.96,9.63c23.5-11.63,48.46-21.45,74.14-27.26,14.92-3.38,30.2-5.46,45.51-5.14.19,1.78-.05,2.19-1.2,3.4-4.95,5.19-9.28,6.65-14.05,13.98-2.01,3.08-6.06,13.08-7.51,14.33-.99.86-7.03,2.46-9.88,4.38-6.89,4.62-14.7,14.89-17.67,22.61-1.15,2.99-2.02,11.66-3.21,13.19-1.99,2.55-10.13,6.34-13.92,10.01-8.46,8.18-13.87,19.3-15.84,30.92-.59,3.46.18,9.07-.65,11.65-.26.8-3.06,1.72-4.21,2.95-7.3,7.84-15.81,20.31-16.52,31.32-.3,4.69,1.8,15.66.57,19.58-1.09,3.44-8.94,10.8-10.9,16.25-4.34,12.07.1,22.51-.83,33.66-.41,4.92-3.95,11.28-4.71,16.98-.82,6.13-.64,15.76,2.56,21.24,1.25,2.14,4.08,3.07,5.51,5.59,3.48,6.13-.86,11.45-2.13,17.51-33.17,157.74,154.87,260.73,262.42,142.34,48.17-53.02,71.92-129.43,75.52-200.14-1.77.19-1.81,1.93-2.41,3.12-6.39,12.74-11.41,26.11-18.39,38.62-20.53,36.8-48.81,70.56-86.52,90.37,0,.82-.52,1.87.4,2.01,9.97,1.46,15.77,2.18,25.57-1.32,2.11-.75,11.65-6.58,12.31-5.9.52.54-5.39,11.95-6.3,13.56-5.05,8.94-10.82,17.37-17.2,25.13" stroke="#000" stroke-miterlimit="10"/>
    <path d="M184.6,361.22C108.06,315.36,29.71,238.37,5.3,150.08c-23.13-83.65,33.54-85.82,91.64-52.8,78.79,44.77,146.01,127.39,196.74,201-3.9,5.35-2.45-.09-2.99-1.13-.06-.12-1.56.62-2.73.17-1.38-.53-4.37-2.5-4.63-2.51-2.34-.06.21,8.21-4.63,2.76l-3.69-2.08c-34.72-50.08-74.8-98.23-120.59-138.9-27.31-24.25-71.59-59.38-107.72-65.41C.44,83.46,15.9,132.06,25,158.44l-1.13,1.99c1.32-.57,1.76-.2.95,1.05,2.71,2.56,3.56,5.31,3.83,8.94,3.34,7.48,6.24,15.04,8.69,22.68,1.65,1.23,3.34,2.54,4.4,4.33,13.46,22.63,24.77,41.55,42.09,61.88,31.07,36.46,62.48,59.58,101.34,86.38.81.56,1.48,1.3,2.14,2.09s1.25,1.71,1.8,2.64c-2.81.96,1.82,1.5,1.86,2.59.04.96-8.42,1.55-6.18,4.21.72.86,11.99,1.56-.19,4Z"/>
    <path d="M413.68,267.47c1.11,1.44,2.93,3.51,4.36,4.63,1.86-2.38-1.92-9.76-1.51-10.08.23-.18,5.23.02,5.82.43.69.47,4.21,11.75,5.46,13.49.86,1.2,1.87.62,3.04.76l-1.44-12.06c4.73-.76,9.58.17,12.21,4.66,1.16,1.98,5.34,15.15,6.37,15.21,1.2.07,2.88-5.72,3.16-7.01,1.37-6.31-2.05-12.79,8.05-8.38-.78,2.75-1.86,13.4-.67,14.91,1.36,1.73,1.8-.52,2.29-1.19,4.49-6.16,2.53-14.61,12.39-13.14.95,1.15-6.58,13.14-1.71,14.93,2.12-6.04,6.43-13.4,13.44-14.18,3.12-.35,5.45,1.29,8.24.19,1.73,4.02-1.91,4.22-3.76,6.89-1.3,1.88-3.25,5.04-4.08,7.09-.45,1.11-1.2,2.22.57,2.69,2.97.78,8.54-6.49,11.55-8.3,6.43-3.85,11.84-3.44,18.34.19l-14.99,9.8c-.98.51.71,2.01.94,2.05,1.59.3,10.34-1.5,13.78-1.08,6,.73,11.99,3.29,17.52,5.57.23,1.31-1.09,1.15-2.05,1.39-45.5,11.39-52.99,64.67-38.1,103.5,16.31,42.55,63.59,76.22,103.56,37.79,1.83-1.76,6.29-9.1,6.86-9.13,4.65-.31,14.01,11.83,15.97,16,20.18,42.94-25.95,95.3-61.31,114.74-86.67,47.66-230.59,24.22-275.44-71.21-16.88-35.92-14.33-84.2,2.03-119.98,3.73-8.16,13.91-18.62,15.93-24.53.48-1.41,0-1.73-1.39-1.54l-7.47-.83,5.92-7.21c2.89-.82,3.83-1.99,5.63-4.25l14.29-6.37c-1.93-2.74-4.89-2.99-7.45-4.24-.34-.17-.29-1.62-.92-1.72-1.39-.22-3.42,1.81-4.36.36,4.22-5.74,12.72-11.68,20.07-11.58,2.65.04,8.78,3.76,4.72-3.34-1.44-2.52-4.2-1.68-4.89-3.66,3.51-1.79,21.89,1.73,21.13-3.42-.42-2.84-11.72-5.15-11.63-6.66.08-1.35,13.1-6.01,15.32-6.35,2.84-.43,11.17.99,11.94.67,5.2-2.17-1.96-6.75-1.48-8.99.72-3.31,10.94-4.42,14.13-3.48,1.2.35,7.44,5.28,8.35,6.26,1.69,1.81,2.94,5.46,5.01,6.89-.56-2.98.82-10.01.42-12.5-.1-.6-1.61-.48-1.74-1.24-.61-3.61-.33-9.4,4.65-7.98,2.4.69,14.56,23.55,17.76,20.7.51-.45-2.39-10.98-2.64-13.33-.34-3.23-2.01-9.63,2.41-9.54,1.87.04,4,4.83,5.43,6.69Z" fill="#e9ad27"/>
    <path d="M23.87,160.43c-.61-4.29,3.96-3.03,6.32-.78,2.96-1.09,3.74-3.93,2.34-8.52,1.4-3.24,11.19-6.7,14.65-4.43,2.3-2.29,4.83-2.08,7.58.63,4.56-6.3,7.05-4.86,7.32,2.29l3.31.76,2.87-.6c8.87,5.08,16.62,11.51,23.85,18.37,2.95-.26,4.34.83,4.59,3.71,44.18,31.64,85.6,71.96,120.85,113.69,5.66,3.8,10.64,10.14,4.93,15.39-.27.88-.6.84-1-.05-.5-.48-1.14.25-1.92,2.19-7.76-4.58-16.15-10.4-23.47-16.57-2.97-.72-4.92-2.15-5.85-4.28-3.45-2.22-54.45-33.91-58.54-33.49-.41.04-.65.61-.74,1.02,26.12,17.44,52.13,35.4,78.02,53.87l3.17,3.82,3.34.72c13.8,9.71,27.27,19.58,40.43,29.59,4.3,1.25,6.25,3.2,5.85,5.85,3.99.83,6.76,3.41,8.43,6.62-3.6,6.75-5.37,14.35-9.02,21.1-.7,3.61,4.78.38,5.58-1.23.78-.11.55.94.44,1.52-.25,1.26-4.41,13.5-4.86,14.09-.3.41-1.75.66-2.36.63-3.58-.21-19.71-8.81-24.19-11.01-15.68-7.7-31.71-15.97-46.69-24.91-60.62-36.17-120.62-93.27-151.76-157.32-3.6-10.77-7.78-21.31-12.53-31.62-.32-.35-.69-.65-.95-1.05Z" fill="#ecd4a0"/>
    <g>
      <path d="M52.16,154.75l-.12-1.58c-.08.65-.06,1.23.12,1.58Z" fill="#eddab1"/>
      <path d="M55.29,151.89c-1.97.22-.45-2.43-.86-3.04-.65-.96-2.12,2.13-2.4,4.31l-.5-6.44c-4.26.27-1.75,5.24-6.55.68-.82,2.95-3.08,2.88-1.99-.09-1.41-1.22-3.1,3.36-2.67,3.88.28.34,1.79-.63,2.53-.43.97.26,2.05,2.04,2.4,1.67.45-.48-.8-3.36,1.14-2.94l.63,8.03c-2.69-.84-3.71-2.33-3.77-5.17-1.43-.71-.86,3-2.07,1.89-.39-.36-2.17-5.09-3.76-5.17l-.54,1.88-2.55-.52c.38,1.71.27,4.31.79,5.79.43,1.22,2.76.2,1.82,2.81-2.56-.72-5.07,2.48-6.78,2.55-1.58.06-3.51-3.57-6.3-1.15-5.94-9.04-11.07-39.19-10.69-50.11.93-26.14,28.71-24.21,46.9-17.74,61.65,21.93,130.92,92.57,172.01,142.72,14.94,18.24,34.27,42.49,46.61,62.28,2.26,3.62,11.47,19.77,10.99,22.91-.1.64-1.54.66-2.07,1.31-2.28,2.82-4.75,6.27-7.04,8.89-.8.91-2.37.77-2.48.91-12.17-12.46-25.51-26.2-37.84-39.93-.72-.8-1.25-1.79-1.76-2.8-.52-1.03-.92-2.13-1.28-3.24l-1.33.53c-4.07-4.3-8.5-8.04-13.27-11.23-24.74-29.53-55.32-55.07-85.5-79.51-22.02-17.83-47.07-36.35-71.68-48.72.85,1.24.83,2.47-.04,3.7" fill="#eddab1"/>
      <path d="M64.24,151.43" fill="#eddab1"/>
    </g>
    <path d="M673.66,180.03c-8.88-3.23-3.43-10.79,3.64-4.94,2.6-1.96,5.31-1.62,5.59,2,6.99,5.62,6.3-8.43-.85-4.81-10.86.62-3.18-14.81,2.18-6.56,0-2.05.65-3.66,2.71-4.31-3.76-2.39-2.06-7.05,2.28-5.81,4.38,3.9,11.22,7.55,10.18-.45l3.16-4.98c-8.29-1.09.74-9.43,4.97-4.62,4.38-1.44,8.52-.24,6.88,5.06,5.19,2.64,7.6,4.18,4.24,9.31l-1.32,7.15c-.98,7.1-8.65,23.27-11.96,30.46-23.86,51.78-62.55,98.38-106.31,134.12-7.8-10.99-17.36-20.93-29.35-27.37-1.29-2.27.28-2.82,2.5-2.44,17.38-13.49,35.24-26.65,53.59-39.47-21.06,7.11-40.71,20.98-58.21,34.39-11.89,3.2-6.53-17.07,2.24-16.5l3.95-7.43c30.02-33.88,64.92-62.69,99.97-90.92.18-.14.13-1.35-.08-1.88Z" fill="#edd6a4"/>
    <path d="M696.74,161.58c-.18-1.37,2.97-.54,1.71,2.6,5.58-.86,1.87-4.67,2.75-8.14.72-2.82,5.98-4.04,5.76-2.49l3.1-2.35s1.95-1.15,2.19.03,1.99,1.22,2.47,1.97c.54.86-.05,2.49.14,2.72.25.32,2.28,4.41,2.51,5.87.04.27,0,4.98-.04,5.26,14.03-32.7,3.3-52.86-33.35-36.13-50.08,22.86-116.02,95.56-148.74,139.97-.64.87-2.05.35-2.07,1.11-.07,2.3,11.26,12.59,13.28,16.14l2.46-.05,6.22-7.82c2.97-1.48,4.52-3.38,4.65-5.7,2.76.34,4.62-.44,3.5-3.65l4.02-1.98c29.74-28.86,61.18-55.41,94.3-79.64,5.17-2.25,9.19-5.35,12.09-9.29-.06-.09,2.28-2.97,3.48-3,3.27-.08,4.25-5.2,3.52,3.33l3.07-1.86-.13,3.01,5.07-1.77.84,4.04c2.14-.03,1.18-2.22,1.32-2.44.39-.58,3.37-.49,1.89-2.41-.13-.16-3.53,1.9-3.94-1.18l4.03-.32-2.99-.65c-.68-2.66-1.84-11.1-.81-4.04-1.72-1.27,7.81-10.51,7.72-11.16Z" fill="#eddbb4"/>
    <path d="M691.72,164.18" fill="#eddbb4"/>
    <path d="M689.01,172.74" fill="#eddbb4"/>
    <path d="M689.01,172.74" fill="#eddbb4"/>
    <path d="M306.85,571.2l-7.05,3.06c-6.06,1.53-30.84.91-34.37-3.98-.43-.6-.06-3.06-.4-4.05-2.89.46-.67,2.66-1.67,3.92-4.36-2.48-9.24-4.21-13.52-6.82-9.52-5.8-17.31-12.41-24.23-21.02-.59-.73-2.23-.92-2.4-1.19-.4-.63,1.41-2.55,1.11-2.84-.23-.23-2.06.46-3.06-.77-5.27-6.47-5.16-10.98-6.28-18.21-.11-.68-1.47-.54-1.51-1.03-.3-3.74.15-12.55,1.09-15.99,1.1-4.05,10.73-16.93,13.98-19.78,4.73-4.13,2.79-.84,3.88,2.02,4.41,11.64,8.94,23.22,15.92,33.32,1.12,1.63,4.81,4.63,5.17,5.74s-.86,2.51-.6,3.02c.06.11,1.38-.76,2.5.02,2.74,1.9,9.15,9.25,11.99,12.14,9.34,9.47,23.89,19.73,37.74,23.74,1.46.42,11.44,1.1,5.61,2.97-3.24,1.04-10.44.81-14.22.76-1.71-.03-6.58.26-6.95.19-.51-.1-.33-1.98-.85-1.98-1.36,0-2.01.95-4.61.29-2.43-.62-11.83-6.86-12.69-6.21-.24.19,2.41,5.15,2.7,5.51.57.71,1.46-.09,2.03.33.68.49.68,1.89,1.06,2.19.22.17,2.3-.47,3.62.02,3.67,1.35,8.39,3.8,10.55,3.9l15.48.73Z" fill="#ca681a"/>
    <path d="M177.69,571.13c.75.61,4.79,9.51,6.07,11.22,4.63,6.21,17.54,18.4,24.05,23.05,3.08,2.2,13.7,6.92,15.29,8.81.83.99.57,1.98.5,3.12,1.76.48.71-1.41,1.09-1.95.81-1.12.97,1.66,1.08,1.74.57.41,7.82,1.77,9.52,2.44,1.11.44,1.41.94,4.13,1.96,4.05,1.52,15.39,4.45,16.64,7.86.27.74-1.41.18-2.05,1.1-8.16,11.66-23.11,12.2-35.61,6.41-3.49-.78-11.07-10.82-6.59-3.1l-2.1,1.91,3.02.15c.12.1-1.16,1.71-1.04,1.87,1.25,1.76,13.7,3.69,16.04,5.02,1.89,1.07.98,3.15,2.53,2.93-1.29-3.02,11.66-1.93,12.1-1.42.18.21-.22,2.16-.15,2.97-10.32,1.71-17.82,5.48-28.34,2.41-12.73-3.72-31.18-15.18-41.14-25.7-2.17-2.29-.54-1.54-3.8-4.1-4.28-3.36-2.18-5.61-2.42-6.04-.56-1.03-4.01-1.09-4.49-5.93-.97-9.63,2.79-24.53,9.02-32.03.49-.59,6.01-5.24,6.67-4.7Z" fill="#cc6719"/>
    <path d="M507.36,331.37c2.9-2.27,6.4-4.3,8.49.1-1.97,4.51.79,6.92,4.44,9.4l-.46,2.09.43,2.75c-8.8,13.81-7.86,32.55-2.83,47.63,12.14,36.36,53.4,42.28,59.93.51l2.23-2.02c2.23-6.91.96-17.98-1.67-25.38,4.42-5.03,20.13-.2,15.09,8.09l1.46,1.15c-.11,5.07,1.98,7.01,6.28,5.81-.17,9.21-1.15,18.28-2.94,27.21-3.73,26.68-39.84,39.67-62.19,25.52-32.44-20.54-47.5-69.1-28.27-102.86Z" fill="#eed6a1"/>
    <path d="M597.82,408.71c.02-.13-1.14-.17-.93-2.49.39-4.53,4.17-6.59-2.61-7.18l1.12-2.45c1.44-.45.64,4.02,2.88,2.13,1.09-.92,2.23-15.22,1.76-15.93-.27-.41-3.4,2.1-3.99,1.74-.2-.12-2.69-3.48-2.75-3.7-.97-3.39,2.06-5.4-3-3.51-.19-2.52,1.89-5.02,2.28-6.42.04-.15-1.87-2.35-2-2.44-.73-.46-2.88,1.76-3.46,1.69-.28-.04-1.7-1.71-1.4-2.04.33-.35,2.35.93,2.04-.9-4.83-3.03-6.14,1.69-6.58,1.69-.58,0-.39-3.99-2.4-2.12-.23.21,2.1,4.2,2.35,5.77,1,6.19-2.92,12.55,3.62,16.04l-2.96-.64-.26,5.49-1.93-1.59-1.82-2.61c3.49-30.3-24.59-71.23-55.2-46.36l-2.75.11c-1.1-.26-1.87-2.65-2.94-1.52-.68.72-1.37,2.7-3.05,1.23-.17-.15,1.53-2.6,1.25-4.3-.11-.68-1.68-.53-1.88-1.38-.34-1.46.76-.78-.92-3.9-.29-.55,3.92-.2,1.09-1.96-1.96-1.22-4.79,1.78-6.02.24,23.05-40.48,69.82-16.99,86.19,16.7,9.43,19.42,10.53,40.07,4.27,60.65Z" fill="#eedbb0"/>
    <path d="M257.57,469.77c4.66,7.4,7.78,22.28,12.34,31.31,7.75,15.36,24.29,37.45,36.51,46.68.8.6,2.38,1.01,2.42,2.5-15.61-4.33-30.87-11.52-43.25-22.08-4.54-3.88-7.37-9.51-12.15-13.06l2.06-1.39c-4.35.21-7.07-6.77-8.05-10.37-2.38-8.78-2.59-20.3-1.1-29.12,2.25-.48,1.36.78,1.13.31-1.36-2.75,3.31-5.13,5.84-5.33,1.22-4.37,3.42-3.67,4.26.55Z" fill="#d06c1a"/>
    <path d="M150.21,665.94c.12.14.01,2.31.78,3.57,4.26,7,2.56,5.72,8.05,10.8,8.39,7.76,7.69,7.73,19.59,10.92,2.56.69,6.98-1.11,6.34,2.36l2.5-1.96,11.51,1.64c-.34,1.53-1.93,1.84-3.14,2.35-6.79,2.88-15.86,4.44-23.77,4.27-.51-.01-.25-1.44-.85-1.69-2.31-.99-2.85,1.64-3.15,1.64-1.11,0-5.07-2.81-5.42-.29,5.66,3.41,12.1,8.22,19.11,7.34,2.76-.35,14.46-4.76,15.3-4.68,1.98.18.91,1.52.4,2.54-1.45,2.93-13.82,11.82-17.11,11.28-1.8-.3-1.71-3.71-3,.29-3.53-2.55-10.06-1.44-13.71-3.03-5.24-2.28-14.14-12.43-15.74-18.03-1.82-6.4-1.14-21.2.25-27.92.27-1.31.6-3.17,2.03-1.42Z" fill="#cf6a1a"/>
    <path d="M315.72,892.97l15.98-6.07c28.78-14.49,51.78-36.21,70.74-62l18.96-29.06c-4.66,11.38-11.6,23.47-18.43,33.84-19.45,29.54-50.88,58.47-87.24,63.28Z" fill="#ecdbb2"/>
    <path d="M151.16,752.08c.95,26.28,7.26,52.4,19.11,75.83l12.33,21.75c-17.43-20.11-29.56-48.59-32.37-75.22-.55-5.2-1.23-15.56-.82-20.53.14-1.69-1.32-2.24,1.75-1.83Z" fill="#f7edc7"/>
    <path d="M257.57,469.77c-2.9-4.61-1.75-.16-2.61.95-.39.51-3.83.66-5.54,2.23-1.05.96-.72,6-3.07,1.3.02-.13-.78-.71-.24-2.7,1.65-6.12,5.75-12.13,8.23-17.94,1.48-.23.96,1.19,1.18,2.23.97,4.47,1.72,9.36,2.05,13.93Z" fill="#d39b21"/>
    <path d="M207.48,669.5c7.61-1.3,8.16-2.65,13.74-6.19.34-.21,7.43-1.52,5.38-3.79-.11-.12-1.84.82-3.21.61-2.43-.36-7.05-2.97-6.88.9-1.56.28-.39-1.46-2.09-2.41-3.64-2.04-10.28-2.19-14.18-4.27-1.58,4.23-1.03.33-2.97-1.17-1.84-1.42-3.62-.23-4.19-.52-6-3.01-26.82-17.91-30.82-23.49-1.78-2.48-1.39-8.21-4.82-9.96.3,4.87-5.79,11.36-6.7,15.24-1.68,7.2-1.14,16.18,1.46,22.49.75,1.82,2.35,3.57,3.21,5.23,1.36,2.62,1.79,3.7,3.71,6.18,4.41,5.69,10.29,10.77,17.39,12.38,4.94,1.12,19.2,1.78,24.26,1.34,6.53-.58,16.47-4.24,20.24-9.79-8.64,1.45-17.44,1.46-26.01-.22l1.89,2.07c-3.26,1.51-3.87-3.01-2.76-4.07.48-.46,11.27-.2,13.36-.56Z" fill="#cc6719"/>
    <path d="M444.74,88.16c-.63-.12-1.35.03-2-.09l1.04-21.98c1.9.83,2.02,5.27,2.25,7.12.48,3.8-.16,8.6.85,12.56.19,1.63-1.39,1.64-2.15,2.39Z" fill="#b4621c"/>
    <path d="M24.82,161.48c1.07,1.17,4.31,2.49,4.83,3.74.42,1-2.51-.36-2.06,1.39l1.8.29c-1.21,4.67,3.44,8.31,3.59,13.01l2.02-.92c-2.81,5.13,1.43,5.58,2.42,7.3.39.67-2.26,5.87,3.01,4.98l-3.08,1.85c-4.92-10.12-9.2-20.84-12.53-31.62Z" fill="#eddab1"/>
    <path d="M596.5,472.06c2.72,2.98,4.51,10.9.76,13.29-3.47,2.2-11.23-11.54-17.73-6.9-2.92,2.09-7.92,17.1-11.62,21.9-2.13,2.76-13.64,13.83-16.51,15.99-8.21,6.19-28.64,11.86-36.56,18.14-2.77,2.2-4.18,7.42-6.96,10.21-7.03,7.05-21.01,11.82-30.79,12.39-50.09,2.91-90.75-29.19-119.45-66.27-.64-.83-.67-3.23-.79-3.34-.78-.71-10.44,11.3-11.79,12.25-5.5.15-5.62-2.24-3.71-6.71.78-1.81,5.81-9.28,7.22-10.96,3.53-4.21,13.02-9.69,18.53-9.01,1.52.19,2.4,1.84,3.89,2.08,2.56.4,5-1.9,8.46-.08,5.57,2.93-3.97,5.07-5.69,6.19-1.19.77-.95,1.02-.2,2.04,2.01,2.7,13.27,9.53,16.78,11.5,42.97,24.13,114.38,36.09,156.2,4.16,3.52-2.69,15.29-13.48,17.23-16.79,1.65-2.81,1.36-6.53,3.57-9.73,6.35-9.2,22.3-7.85,29.17-.33Z" fill="#161b12"/>
    <path d="M320.87,429.37c-6.07-6.61-13.02-30.03-14.27-39.12-4.25-30.98,10.24-69.2,38.84-83.95,66.5-34.29,121.56,47.17,98.9,107.63-12.25,32.7-45.32,58.23-81.2,46.29-16.49-5.49-30.92-18.48-42.27-30.85Z" fill="#171c13"/>
    <path d="M272.75,338.84c.19-.41,4.69-6.51,5.34-7.26-.08-5.52-6.88-9.28-10.1-12.86-9.68-10.75-20.33-22.35-30.78-33.12-2.85-2.94-7.24-8.34-9.99-10.53l-5.33-4.66c-31.27-34.7-74.46-71.22-113.14-98.8-8.23-5.87-33.28-24.13-41.3-26.47-9.65-2.83-4.43,1.88-2.07,5.22,4.74,2.84,10.49,6.61,14.88,9.89,2.44,1.82,10,9.29,11.26,9.91,1.2.59,2.57,1.92,3.83,3.12,5.73,5.48,16.41,11.68,23.14,17.2,31.58,25.9,60.37,54.51,88.21,85.12,5.08,5.59,9.25,13.07,16.01,16.48l-.24,8.85c-.33.06-.87-.17-1-.05l-28.16-19.28c-13.25-6.8-25.32-15.74-38.26-23.05-3.8-2.15-21.81-11.74-24.53-12.09-1.08-.14-.72-.38-2.59-.03-.46,6.02,6.11,7.21,9.67,9.83,24.49,17.98,49.67,33.88,74.54,51.2,10.3,7.17,19.88,14.75,29.61,22.24,5.68,4.37,21.15,16.43,24.58,17.36l3.86,3.17c1.13-2.11,4.76-3.64,5.27-8.47.25-2.42-3.1-2.1-2.73-2.92Z" fill="#969174"/>
    <path d="M217.84,299.71" fill="#969174"/>
    <path d="M673.67,180.03c-8.11,4.36-16.47,9.36-23.96,14.93-30.66,22.82-58.57,49.46-86.44,75.98-3.13,2.98-7.37,6.25-9.68,8.51-3.08,3-4.78,5.19-7.15,8.72,1.54,2.72,1.85,7.24,3.01,8.25,1.45,1.27,6.32,1.68,8.71,2.6,3.8,1.45,7.96,3.34,11.55,5.27.68-1.19,2.27.02,3.57-.76,5.54-3.35,12.26-10.25,17.45-13.96,11.85-8.47,26.65-16.61,38.03-27.03.74-.68,2.98-2.34,2.14-3.42-.66-.85-16.4,5.16-18.64,6.3-11.82,6.01-28.48,17.04-39.79,24.56-2.01,1.34-3.05,3.98-4.53,4.55-4.14,1.61-5.6.64-5.17-3.54.59-5.74,3.63-6.8,7.08-10.72,22.53-25.64,46.24-47.97,72.4-70.16,10.9-9.25,21.45-18.18,32.81-26.98,2.17-3.63-1.26-2.89-1.38-3.09Z" fill="#958f72"/>
    <path d="M579.59,391.84c-2.95,32.83-32.32,45.36-54.98,18.96-13.61-15.85-18.42-51.01-4.79-67.83,10.2-12.59,29-12.39,41.07-2.48,14.65,12.02,20.33,33.09,18.69,51.35Z" fill="#171d14"/>
    <path d="M290.59,589.39c-1.09.15-.52,1.71-.73,2.03-.66,1-1.21-2.2-2.54-2.96-3.05-1.74-13.77-3.14-17.62-4.54-3.98-1.45-14.11-7.84-16.13-8.22-.26-.05-.75-.1-1-.05-11.66-8.91-22.4-15.39-31.59-27.14-.86-1.1-1.85-4.09-2.14-4.3-.29-.21-1.79.83-1.85.74-2.16-2.95-6.6-11.69-8.32-15.69-1-2.34-.53-1.37-1.28-3.75-.84-2.69-1.95-5.29-2.14-8.15-11.58,9.59-28.35,33.61-21.83,49.05,1.84,4.35,4.68,2.26,5.27,3.31.42.75-.41,3.18.78,5.51,1.96,3.85,6.42,4.6,6.68,4.95.65.87.15,3.46,2.39,5.04,1.43,1.01,3.24-.26,3.5.06.18.22-.3,1.74.24,2.62,3.89,6.37,16.78,13.03,22.97,15.48.51.2.87,1.98,1.54,2.05,1.29.14,3.63-1.39,5.4-.71-.06,1.87-5.31.13-2.12,2.4,3.95,2.81,9.93,1.82,10.77,2.18.14.06-.22,1.53,1.98,2.43,1.72.7,4.24.81,4.61-1.3l3.89,2.23c2.24-4.76.17.7,3.49.11l2.15-2.89-.61,2.98c11.69,1.27,22.88-2.85,33.81-6.43.34-1.66-2.38-1.2-3.47-1.19-3.37.04-6.66,1.3-9.87,1.18-4.41-.16-10.91-1.7-13.43-5.74,2.14.08,2.33-.91,5.08-1.27,4.92-.64,2.52,1.12,3.38,1.12,2.15,0,16.25-3.82,18.57-4.79,1.16-.49,1.39-1.91,1.53-1.96.99-.37,5.67,1.29,6.96-2.94-2.08.29-6.79-1.68-8.32-1.47ZM252.41,575.78c-.3.28-.89.97-1.64,1.24.56-.4,1.1-.81,1.64-1.24Z" fill="#d36b1a"/>
    <g>
      <path d="M325.66,217.76c-1.49-1.02-7.96-3.75-7.15-.41l-.97-.04c.05-1.26-.48-2.22-1.53-2.91-3.04-2-13.93-5.26-18.04-6.52-6.16-1.9-12.85-2.28-18.84-4.83-.67-1.1-2.24.91-2.03,1.33.3.58,11.43,8.51,9.85,3.49,1.88-.36.32,1.77,1.05,2.82.69,1,11.24,6.37,13.14,7.67,18.47,12.57,38.04,24.21,54.79,39.1,2.14.28,11.93,5.66,12.5,5.3.18-.11-.66-3.61-1.2-4.06-13.26-13.99-25.76-30.08-41.58-40.93Z" fill="#b4621c"/>
      <path d="M528.97,190.69c-5.31,1.66-10.7,5.24-16.26,5.79,2.15,3.67-.42,1.04-3.09,1.27-1.8.16-12.07,2.85-11.17,4.04.29.38,2.43-.7,1.95,1.09l-4.1,1.28-14.88,18.86c-1,.03-1.34.35-1.97-.62-2.01-3.1,6.14-13.14,8.2-16.23,1.43-2.15,2.29-3.51,3.86-5.7,3.74-5.21,8.3-11.44,12.35-16.37,1.1-1.34,6.25-5.59,6.45-5.98.22-.45-.74-1.74-.65-1.81.92-.64,1.95-.69,4.62-2.78,2.17-1.7,4.95-2.83,6.77-5.21-5.55-3.43.03-1.51,1.78-2.12,2.3-.79,3.52-3.01,4.92-4.76l7.82-3.96c.25-2.02-2.88-.8-3.72-.41-2.54,1.18-5.1,3.84-8.25,4.53-.93,2.66-11.81,5.97-12.52,6.82-.12.14.99,1.88.87,1.97-.7.49-10.56,1.53-10.96-1.06-.36-2.31,2.64-3.12,3.1-4.09,3.7-7.76,8.34-16.72,13.42-23.92,3.52-4.99,8.38-10.05,12.5-14.63-.12-.98-2.13-.72-2.79-.36-.87.48-10.09,10.04-11.74,11.71-13.35,13.6-27.71,26.38-37.46,43.54-.38.67-4.09,1.29-2.9,5.1l-1.92-1.11c-2.03,9.28-10.98,12.1-13.68,21.37-1.01,3.45-.79,4.57-3.02,8.38-.87,1.49-4.27,5.65-4.98,7.09-2.51,5.04-3.63,10.7-6.82,15.4-.08.98,1.39.37,1.97.58-4.07,2.15-2.9,8.82-3.6,12.84,6.27-.89,5.84-7.2,7.5-10.65,3.52-7.31,11.23-16.13,16.12-22.74,1.64-2.22,11.62-15.01,11.74-15.99,3.09-.22,2.01.92,1.1,2.78-5.57,11.39-12.4,20.84-16.44,33.53-.58,1.81-.74,6.42-1.28,8.07-.55,1.65-4.43,8.28-3.81,9.59.1.22,3.97,2.34,4.21,2.31.75-.12,8.57-11.97,8.14-12.6-.25-.37-2.44.64-1.92-1.1.91-.01,2.2.01,2.94-.44,3.39-2.06,13.4-17.5,17.17-21.88,9.09-10.56,20.82-20.38,33.37-26.61,3.02-1.5,6.86-3.11,10.08-4.17.31-1.84-2.05-.97-3-.67Z" fill="#b4621c"/>
      <path d="M289.88,187.99l-1.09,1.91c2.94.12,5.18,2.15,7.85,2.99,1.42.45,2.97-.15,4.07.21,2.91.96,8.88,4.42,11.01,4.6,9.94.84-3.26-8.15-5.25-9.53-10.3-7.16-20.49-10.46-31.26-16.03-7.26-3.75-13.46-10.77-22.13-10.93-.38,2.12.35,2.29,2.2,2.74,6.22,1.48,18.27,14.08,24.92,18.94,2.38,1.74,7.04,4.19,9.67,5.09Z" fill="#b4621c"/>
      <path d="M448.75,215.49c1.28-1.58,2.42-2.39,2.23-4.9,3.95-4.49,5.99-11.02,9.07-15.26.83-1.15,5.08-3.84,5.93-5.56.48-.97-2.52.14-1.92-1.58,6.45-.73,9.39-8.98,12.83-13.75,1.73-2.39,7.44-8.05,8.29-9.8.48-.98-2.51.14-1.92-1.57,4.72-.46,2.14-2.32,2.21-4.32.02-.7,1.77-.45,2.42-1.75,1.12-2.26,2.16-9.38,3.15-12.1,1.41-3.88,7.07-9.05,2.68-12.38-.66,3.18-3.35,5.44-4.89,7.85-3.34,5.22-7.17,13.87-10.78,19.52-2.05,3.21-4.16,6.39-6.12,9.64-2.69-1.03-.95-5.23-1.05-7.31-.11-2.26-1.3-6.46-1.23-7.81.11-2.09,3.27-12.42,3.84-17.84.13-1.21,3.04-3.22-.85-3.05l.05-.97c.66.11,1.79.24,2.04-.56,1.49-4.72-.17-15.16,2.05-20.81.79-1.58-3.22-1.81-1.96-2.56.31-.18,1.65.51,1.99-.54.12-.38.51-6.59-1.75-4.47-.42.4-1.35,7.34-1.9,8.95-2.07,6.02-4.35,11.38-5.96,17.69-1.34,5.27-3.86,11.34-5.21,16.79-.33,1.33-1.41,4.56-1.34,5.34.1,1.14,2.53.03,2,1.69-5.04-1.32-2.47,5-5.36,7.76,4.67.5.09.81-.94,2.64-.79,1.4-5.19,23.3-8.16,20.95-.08-.07.47-1.24-.74-1.97-.63-.38-1.99.02-2.19-.16-.32-.29,3.06-3.57-.84-3.05-.39-1.72,1.97-.44,1.98-1.31.01-1.3-1.08-3.91-1.06-6.2.11-9.25,2.33-20.49,1.81-29.39-.19-3.23-2.86-2.71-2.82-3.63,0-.2,1.63-1.14,1.92-2.15.45-1.54-.77-2.85-.7-3.75.05-.65,2-.42,2.01-.88.27-10.61-.76-23.43-1.15-34.32-.07-1.88.77-9.66.32-10.36-.1-.16-1.41.03-2-.09-5,4.88-1.9,2.46-2.3,7.45-.98,12.06-2.9,23.52-5.12,35.13-.47,2.47-.3,10.45-2.17,12.04-.35.3-3.57-3.1-3.03.85-.57-5.84-4.55-15.59-5.98-21.82-.53-2.31,1.39-2.85-2.88-2.62.46-.66,1.96-.82,2.03-.93,1.39-2.08-1.56-2.03-1.68-2.2-.33-.49.9-1.56.9-2.22,0-.78-1.61-.51-1.73-1.17-.23-1.27,1.89-4.47-1.99-4.63l.04-.98,2.01-.4c-1.33-1.34-1.27-3.22-1.86-4.83-1.22-3.29-5.21-11.52-6.07-14.21-.13-.4,1.18-2.39.64-4.85-.33-1.51-4.77-13.29-5.46-14.23-.79-1.08-2.68-1.71-3.42-1.18-.26.19,2.55,4.17.72,6.03,5.37-1.78,1.91-.37,1.43,1.57-1.09,4.43,3.12,20.52,3.67,26.2.82,8.48-.04,17.6.44,24.55.4,5.81,2.7,13.29,3.37,18.39.18,1.37,1.67,10.49,1.26,10.85-.88.79-4.71-.35-5.39-.22-1.2.23-.04,2.39-1.7,1.89,1.91-4.58.22-5.4-2.15-8.54-.08-.21-.22-.41-.43-.59l-12.46-33.63c-3.59,2.12-.95-.23-1.59-2.78-1.17-4.62-6.12-15.07-8.14-19.37-1.76-3.76-3.58-10.84-7.71-10.72-.05-1.96,2.78.16,2.1-2.38-.14-.53-4.68-9.41-5.05-9.82-.92-1.02-3.11-.1-4.43-1.16l1.72,6.1,3.03-.86c-5.9,4.48,4.44,5.51-1.13,7.1-.29.33.79,3.72,1.05,4.66,2.26,8.02,5.81,21.45,7.29,29.85,1.13,6.41,3.7,12.06,2.97,18.93l4.03-.8c-.09,1.61-2.98,1.4-3.2,2.49-.15.78,2.02,14.81,2.35,15.75.41,1.18,1.81.71,1.94.84.78.8-1.5,1.24-2.08,1.89-.51.57.06,5.26-2.12,2.9-.55-.59-3.28-8.58-4.1-10.18-.53-1.03-2.24-.97-2.39-1.13-.07-.08.88-1.12.43-1.96-8.87-16.43-23.15-41.33-36.75-52.94-.12-.1.76-1.67-.07-3.18-4.76-8.73-17.6-24.39-24.89-31.48-7.37-7.16-4.06-1.35-.37,3.21,3.71,4.59,6.8,7.59,10.04,12.3,2.75,4,4.89,8.36,7.61,12.3,1.6,2.32,3.73.69,1.65,4.69,3.21-1.79,1.43.14,2.66,2.82,5.06,11.09,11.64,21.38,15.72,32.55,1.65,4.52,4.73,19.55,6.82,22.26.79,1.02,2,.69,3.07.77.4,1.79-2.25.35-2.06,1.39.52,2.81,4.16,1.86,1.7,6.61,4.47-2.39-.89,1.82,2.53,2.34l1.08,5.83-.51.92c-1.3-1.26-2.8-1.61-4.43-2.16-4.22-3.43-6.64-7.5-9.93-11.55-3.35-4.12-5.86-7.61-9.45-11.42-2.19-2.32-14.35-15.23-15.34-15.7-.98-.46.15,2.52-1.58,1.92-.01-.83.3-2.05-.16-2.7-6.38-8.96-29.84-29.2-38.72-36.03-5.83-4.48-12.89-9.79-19.8-12.08l22.93,23.46c3.05-.83,2.78,3.81,3.94,4.64.3.21,1.78-.82,1.85-.73,3.82,5.38,8.22,13.47,12.54,19.23,1.31,1.75,7.61,7.4,7.95,8.04.54,1.02,0,2.75.55,3.86.52,1.05,2.41-.04,2.47.07.42.72-.02,4.54.78,6.24.58,1.23,2.26,1.4,2.88,2.36,4.55,7.01,9.24,16.58,12.87,24.18.83,1.73,5.6,11.2,4.42,12.22-1.45,1.25-2.52-.85-3.07-1.27-2.18-1.7-4.62-4.67-6.59-6.19-2.3-1.77-13.01-9.76-14.51-10.31-3.15-1.16-4.18,1.39-4.6,1.38-3.84-.07.76-2.89,1.69-3.9-3.41.5-4.22-3.41-6.39-5.15-5.27-4.2-32.86-24.39-37.19-25.5-2.02-.52-4.01.62-6.04.26l2.08-1.88-4.35-3.22-1.08,1.95c-1.13-3.89-2.91-2.22-3.18-2.41-.68-.48-.99-3.42-4.49-3.04-1.13.12-.02,2.53-1.68,2.01l.17-4-6.98-.32c-.68,2.64.6,1.75,1.85,2.57,3.43,2.25,29.78,22.44,30.86,24.09.12.18-1.03,1.39-.85,1.7.21.36,5.29,3.86,6.48,5.14,4.65,5.01,10.82,14.21,16.24,17.53.47.29,1.82-.37,1.96-.19.4.54.24,2.62,1.84,4.54,1.91,2.29,3.86,2.04,4.75,2.82.26.23-.42,2.83,2.92,5.98,3.08,2.91,4.68,1.33,2.77,5.13.91-1.61,3.63,1.14,3.69,1.36.18.69-.87,1.57-.84,2.16.05.88,2.69,2.55,2.85,2.75.19.24.05,1.25.59,1.92,2.97,3.64,8.41,10.12,12.83,10.73.25,5.15,2.47,8.62,6.47,11.32l2.87,6.47c3.97,4.84,3.8,6.72,8.27,10.62,7.27,6.37,14.38,12.43,19.27,20.72.62,1.06,1.89,3.2,1.82.26-6.92-12.31-12.51-25.42-19.59-37.63-3.55-6.13-9.45-12.89-12.55-19.17-.35-.7-3.2-5.65-.45-5.31,2.08.26,7.57,9.95,10.69,10.71.54,6.1,12.85,13.15,15.43,17.62.21.36-1.27,1.77-.93,2.7.04.12,1.48.34,2.14,1.5,4.06,7.19,6.43,11.51,10.7,17.93.97,1.46,1.68,5.29,1.9,5.47.57.46,2.71-1.22,3.02-.87.32.37-1.99,8.44,3.67,7.17l-17.49-53.88c-3.19,1.94-1.43-.21-2.43-3.03-1.19-3.35-4.05-10.76-7.93-10.48-.4-1.8,2.31-.33,2.05-1.38-.3-1.23-8.16-17.07-9.12-18.48-1.72-2.52-3.71-2.82-5.7-6.75,2.47.31,5.72,2.03,7.9,2.37.27.69.65,1.35.9,2.04,2.17,5.97,4.78,6.93,7.89,11.47,12.3,17.98,24.96,37.66,31.02,58.77,1.41,4.91,1.43,11.15,3.6,15.85,1.21-6.77-.49-13.76-1.62-20.35-.04-.25-.67-2.68-.95-4.03-4.58-21.35-13.87-38.2-24.14-56.96.89-.19,3.2-1.61,4.01-.77.09.09-.25,1.58.3,2.55,1.91,3.38,5.11,6.69,7.16,9.78,7.29,10.99,16.43,34.74,20.25,48.02.85,2.95-.67,9.32,4.12,8.18,1.04-2.92-4.55-2.19-.1-3.17,1.96-2.82-.88-4.89-1.45-6.42-.31-.83,1.88-.05,2.11-1.01.37-1.52-.05-15.16-3.37-14.57l2.19-2.32-2.53-17.09c-.22-1.72-1.79-1.32-2.67-1.74,3.76-1.56,1-4.68,2.37-7.89l-3.98-.2c-.2-1.94,2.19-.46,3.05-.86.4-.19-1.14-7.72-1.24-8.75-.09-.98.83-2.16.77-2.69-.08-.69-4.56-1.4.03-1.66l-.91-.97-.53-10.04c.46,0,1.78-1.32,2.03-.91.36.58.37,6.53.63,8.04.67,3.77,1.4,5.01,2.62,8.13.17.43-.43,1.6-.1,2.29.39.81,1.29.81,1.72.8-.11.32-.2.63-.28.92-.52.52-1.26,1.14-1.45,1.73-.45,1.43.34,8.9,3.45,8.43-.16.25.12.86-.05,1-.19.15-1.48-.37-1.87.03-.73.77,3.21,17.76,3.63,20.82.34,2.49-.53,5.83,0,7.64.6,2.01,5.5,1.83.8,3.08,2.7,5.46,1.91,11.91,2.95,17.36.51,2.67-.5,2.68,3.06,2.52-4.91.66-2.42,2.88-2.63,5.55-.34,4.23-2.69,6.68,4.56,6.64,2.55-.01,3.2-7.4,3.05-9.5-.16-2.22-1.83-1.33-2.98-2.59,1.07-.1,3.59.44,4,.18.17-.11-.69-2.53-.47-4.07.8-5.71,3.49-19.16,2.82-24.27-.26-2.01-3.13-4.21-2.79-4.68.08-.11,1.36.51,2.35-1.15.31-.53.9-7.14,1.11-8.71.23-1.74.29-6.24,1.09-6.87.08-.03.16-.04.23-.08.15.02.48.91.93,1.06l.66-3,2.39,2.15c1,1.1-3.94.7-2.11,2.87.11.13,2.13-.06,1.96.56-.28,1.03-1.66,2.16-1.77,3.99-.17,2.79,2.32,2.47,2.42,2.65.3.55-1.68,2.03-1.78,3.37-.08,1.14,1.36,2.57,1.49,3.57.44,3.47-1.53,5.54,1.71,6.59l-2.03.39-.14,3,4.03-.8-3.06,1.9-1.1,22.93c2.66-1.18,2.76-4.88,4.29-7.08.68-.97,2.72-1.08,3.01-2.15.27-1.02-1.07-2.84-.7-3.48.08-.13,1.67,1.09,2.48.23,1.12-1.19,1.05-3.16,1.78-4.25,2.1-3.16,2.19-5.25,2.38-5.52.14-.2,2.42-1.09,3.95-2.97Z" fill="#b4621c"/>
      <path d="M309.36,241.96c-.74,2.7.75,1.74,1.86,2.56,2.05,1.51,4.53,2.73,6.47,4.21,1.07.82,2.78,4.2,3.91,4.74.31.15,4.87,1.36,5.08,1.2.46-.35-.56-2.3,1.17-1.82-.63,4.07,1.7.16,4.57.21,1.57.03,2.78,1.3,4.38,1.2-6.54-8.2-18.47-7.97-27.44-12.3Z" fill="#b4621c"/>
      <path d="M473.98,253.7c1.42,1.46,11.22-9.66,12.61-10.82,1.63-1.35,4.36-1.59,5.07-3.35-5.55-3.68-18.7,13.12-17.68,14.16Z" fill="#b4621c"/>
    </g>
    <path d="M497.66,537.15l-12.67,7.59c-19.11,7.58-48.81.71-65.27-10.78,12.85-.13,25.39,3.94,38.33,4.75,8.86.55,24.34.96,33.08.17,2.59-.23,3.97-2.11,6.53-1.74Z" fill="#e6ad27"/>
    <path d="M407.68,364.72c-.66-2.74-2.02-5.42-4.08-8.03,2.34-2.32,1.84-3.72-1.53-5.37-2.4-4.23,2.68-6.08,5.87-3.25,4.09.22,7.85.05,4.41-4.05-.46-7.02,11.11-3.31,12.03,2.05,2.42,5.85,4.59,10.77,6.52,14.74,2.33,1.99,4.75,16.28,4.95,19.88,2.47,45.7-37.84,86.51-82.68,59.94-25.43-15.07-37.52-46.9-32.62-75.01,1.41.13.73,5.89.71,5.53-.12-1.75.17-9.06.96-10.03s4.14-2.74,5.66-2.96c.31-2.66,2.75-3.68,7.32-3.05-.48-.37-.85-.73-.81-1.05,1.28-11.79,10.72-8.63,7.57,2.73,4.25,1.66-.86,12.05-1.19,9.6-.07-.49,1.58-1.47,2.22-1.83-1.86-2.58,2.01-6.33,3.67-2.89-3.13,8.6-5.6,18.38-4.16,27.02l2.11,1.71c13.35,75.32,84.65,38.41,62.02-23.22l1.06-2.44Z" fill="#eed59e"/>
    <path d="M430.89,360.81c-.06-.05-.96,1.17-1.47.03-.61-1.35-1.6-7.75-2.16-8.2-.22-.18-4.69,2.84-4.89,3.06-.74.8.44,3.07-1.36,2.65-1.19-4.46,3.97-6.27,3.11-10.85-.41-2.2-3.28-7.6-3.97-3.17-1.73-.07-2.5-2.62-4.88-2.26-4.2.63,3.55,5.2,3.19,6.15-2.79-1.33-5.98,1.58-6.25,4.18-.05.46,7.06,4.9,3.69,7.71-2.7,2.25-2.56-5.64-2.91-6.01-.94-.99-4.04,1.64-2.57-5.26-3.25,3.11-3.33-.29-6.98-.32-1.02,3.3,2.34,1.13,2.9,2.78,2.05,6.11-1.33,5.46-1.38,5.82-.34,2.82,5.07,4.71,2.72,7.61l-2.34-.17c-21.85-40.79-61.96-17.99-60.91,22.21l-1.95,1.92-1.12,2.45.49-10.49-2.03.92c-.25-5.97,2.32,1.32,2.3-5.44,0-2.68-.43-4.25-1.74-6.54l2.94,1.14,2.47-9.9-4.39,7.78c-5.59-4.22,1.38-4.14,1.23-4.43-5.52-3.03-.79-2.12-.73-5.04.01-.63-1.76-.43-1.94-1.23-.58-2.57,2.88-5.41-1.08-9.45-3.07-3.14,1.32,3.88-3.72,4.36l2.93,1.64c-1.13,4.05-2.44,2.18-4.39,2.81-1.19.38-.48,1.66-1.35,1.93-2.59.81-.71-1.07-.6-1.56.21-.92-1.74-.64-1.8-.57-.69.76,1.74,4.27-4.14,2.82l1.86,3.07-4.88-1.2-1.55,9.91-.71-6.03c4.2-24.09,20.29-46.86,45.01-52.97,32.6-8.05,57.05,19.61,65.34,48.16Z" fill="#efddb7"/>
    <path d="M552.08,353.68c13.87-3.28,15.9,37.46,1.28,30.02-6.43-3.27-10.06-27.95-1.28-30.02Z" fill="#eed8a7"/>
    <path d="M407.68,364.72c12.75,25.73,1.25,75.41-33.54,69.23-19.75-3.51-30.83-27.03-31.66-45.28-1.07-23.56,13-52.38,40.67-47.05,9.44,1.82,20.45,14.86,24.53,23.1Z" fill="#161c12"/>
    <path d="M390.34,365.07c6.07-1.53,8.7,8.14,8.63,12.9-.09,5.72-4.22,16.41-11.01,10.9-5.11-4.15-3.27-22.37,2.38-23.8Z" fill="#efe0bb"/>
    <polygon points="230.97 480.69 228.53 482.51 224.23 487.33 221.24 491.26 216.66 498.02 214.55 502.29 213.59 509.47 213.39 513.73 218.4 503.76 223.13 505.48 225.42 498.72 224.13 496.11 227.07 493.71 230.35 493.86 236.19 494.26 232.41 484.53 230.97 480.69" fill="#d39b21"/>
    <polygon points="205.26 517.36 200.12 522.24 194.1 529.41 205.9 520.45 205.26 517.36" fill="#d39b21"/>
  </g>
</svg>